<svg xmlns="http://www.w3.org/2000/svg" width="256" height="256" viewBox="0 0 256 256"><defs><style>.a{fill:#e2e2e2;}.b{fill:#666;}.c{fill:none;stroke:#666;stroke-miterlimit:10;stroke-width:4px;}</style></defs><title>image-templates</title><path class="a" d="M128 253a125 125 0 1 1 125-125 125.1 125.1 0 0 1-125 125z"/><path class="b" d="M128 5a123 123 0 0 1 87 210 123 123 0 1 1-174-174 122.2 122.2 0 0 1 87-36m0-4a127 127 0 1 0 127 127 127 127 0 0 0-127-127z"/><path class="c" d="M40 41l177.3 177.3M215.3 40.7l-174.8 174.8"/></svg>